<?xml version="1.0" standalone="no"?>
<!DOCTYPE svg PUBLIC "-//W3C//DTD SVG 20010904//EN"
 "http://www.w3.org/TR/2001/REC-SVG-20010904/DTD/svg10.dtd">
<svg version="1.0" xmlns="http://www.w3.org/2000/svg"
 width="150.000000pt" height="150.000000pt" viewBox="0 0 150.000000 150.000000"
 preserveAspectRatio="xMidYMid meet">
<metadata>
Created by potrace 1.14, written by Peter Selinger 2001-2017
</metadata>
<g transform="translate(0.000000,150.000000) scale(0.100000,-0.100000)"
fill="#000000" stroke="none">
<path d="M605 1485 c-291 -66 -508 -272 -581 -550 -19 -73 -25 -257 -11 -325
44 -208 159 -376 334 -490 211 -138 482 -158 717 -51 178 81 319 234 391 424
34 92 39 124 39 252 1 129 -6 173 -41 267 -83 224 -279 400 -518 464 -80 21
-253 26 -330 9z"/>
</g>
</svg>
