<svg width="125" height="62" viewBox="0 0 125 62" fill="none" xmlns="http://www.w3.org/2000/svg">
<path d="M66.7717 26.5579V20.6715H65.25V19.5102H69.6186V20.6715H68.097V26.5579H66.7717Z" fill="#149DFF"/>
<path d="M70.3131 26.5579V19.5102H72.6842C73.4017 19.5102 73.9172 19.6548 74.2308 19.944C74.3938 20.1008 74.5154 20.2951 74.5849 20.5096C74.6705 20.7832 74.7107 21.0688 74.7039 21.3552C74.7256 21.7307 74.6403 22.1046 74.4577 22.4342C74.375 22.5625 74.2645 22.6709 74.1344 22.7517C74.0042 22.8324 73.8576 22.8834 73.7051 22.9009C74.0076 22.9742 74.2689 23.1626 74.4328 23.4253C74.6159 23.7459 74.7042 24.1114 74.6873 24.4796V24.5729L74.7233 25.5064C74.7227 25.6222 74.731 25.7378 74.7482 25.8524C74.7645 25.9525 74.7904 26.0509 74.8256 26.1461C74.8794 26.3007 74.9673 26.4414 75.0829 26.5579H73.5142C73.4746 26.4214 73.4468 26.2818 73.4312 26.1406C73.4312 26.0747 73.4174 25.9732 73.4091 25.8359C73.4008 25.6986 73.3952 25.5613 73.3952 25.4597L73.3814 24.7239V24.5345C73.3964 24.3831 73.3796 24.2302 73.332 24.0856C73.2844 23.941 73.207 23.8077 73.1047 23.6944C72.9277 23.5406 72.5708 23.4637 72.0368 23.4637H71.583V26.5579H70.3131ZM71.5913 22.4891H72.3522C72.6388 22.5184 72.9257 22.4357 73.1518 22.2585C73.3281 22.0216 73.4081 21.7275 73.3759 21.4348C73.3903 21.3022 73.3758 21.1681 73.3333 21.0416C73.2908 20.9151 73.2213 20.7992 73.1296 20.7018C72.8666 20.5326 72.5535 20.4571 72.2415 20.4876H71.5913V22.4891Z" fill="#149DFF"/>
<path d="M80.2068 20.3064V24.3752C80.2176 24.7202 80.1916 25.0653 80.1294 25.4048C80.0791 25.6158 79.9849 25.8141 79.8527 25.9868C79.6553 26.2351 79.3931 26.425 79.0946 26.536C78.929 26.5984 78.7576 26.6444 78.5828 26.6732C78.3834 26.7054 78.1816 26.721 77.9796 26.7199C77.169 26.7199 76.5963 26.5469 76.2643 26.1983C75.9323 25.8496 75.7607 25.2401 75.7607 24.367V19.5102H77.0832V24.2599C77.051 24.6373 77.1207 25.0164 77.2852 25.3581C77.369 25.4627 77.4782 25.5446 77.6026 25.5959C77.7269 25.6473 77.8624 25.6666 77.9962 25.6519C78.1292 25.6664 78.2636 25.6467 78.3867 25.5948C78.5097 25.5429 78.6173 25.4604 78.699 25.3554C78.8638 25.0069 78.9325 24.6214 78.8982 24.238V19.5102H80.2013V19.8808C80.2264 19.8581 80.2496 19.8333 80.2705 19.8067C80.3652 19.679 80.413 19.523 80.4061 19.3647V19.3097H79.9108V18.3323H80.8294V19.3125C80.8403 19.578 80.7538 19.8385 80.5859 20.0455C80.4836 20.1627 80.3533 20.2524 80.2068 20.3064ZM77.4816 28.3425V27.2443H78.497V28.3425H77.4816Z" fill="#149DFF"/>
<path d="M84.2297 24.054H85.5162V24.1913V24.3285C85.5162 25.1522 85.3447 25.7507 85.0016 26.1461C84.6585 26.5414 84.1273 26.7364 83.4107 26.7364C83.114 26.7434 82.8183 26.6997 82.5365 26.6073C82.2984 26.5232 82.084 26.3839 81.9112 26.201C81.6492 25.9165 81.4737 25.5644 81.4049 25.1852C81.2818 24.4477 81.2318 23.7001 81.2555 22.953C81.2469 22.3698 81.2755 21.7866 81.3412 21.2069C81.3699 20.8762 81.4639 20.5543 81.6179 20.2597C81.7846 19.9652 82.0309 19.7227 82.3289 19.5596C82.6677 19.4017 83.0395 19.3264 83.4135 19.3399C84.1329 19.3399 84.6567 19.523 84.985 19.889C85.3142 20.2652 85.4775 20.861 85.4775 21.6819H84.1965V21.5116C84.2176 21.2153 84.1533 20.9192 84.0111 20.6578C83.949 20.5662 83.8635 20.4926 83.7634 20.4444C83.6633 20.3961 83.5521 20.375 83.4412 20.3832C83.3041 20.3713 83.1667 20.4033 83.0492 20.4744C82.9317 20.5456 82.8403 20.6522 82.7882 20.7786C82.672 21.0531 82.6139 21.756 82.6139 22.9283C82.6139 24.1913 82.6693 24.9618 82.7799 25.2401C82.8263 25.3702 82.9146 25.4816 83.0311 25.557C83.1476 25.6324 83.2859 25.6677 83.4246 25.6574C83.5479 25.6682 83.6718 25.6434 83.7813 25.5859C83.8908 25.5284 83.9812 25.4407 84.0416 25.3334C84.1887 24.9541 84.2492 24.5471 84.2186 24.1419L84.2297 24.054Z" fill="#149DFF"/>
<path d="M89.9541 26.5579V20.6715H88.4324V19.5102H92.7983V20.6715H91.2766V26.5579H89.9541Z" fill="#149DFF"/>
<path d="M93.4955 26.5579V19.5102H94.8207V26.5579H93.4955Z" fill="#149DFF"/>
<path d="M96.027 26.5579V19.5102H99.6652V20.6825H97.3412V22.3106H99.5158V23.428H97.3412V25.3691H99.7316V26.5579H96.027ZM96.5388 18.9199L97.3412 17.6158H98.2818L99.0842 18.9199H98.5115L97.8087 18.2335L97.1088 18.9199H96.5388ZM99.5103 16.6411H100.692L99.2834 17.9452H98.7079L99.5103 16.6411Z" fill="#149DFF"/>
<path d="M100.705 26.5579V19.5102H103.002C103.699 19.5102 104.203 19.6658 104.515 19.9769C104.678 20.1507 104.797 20.3607 104.861 20.5892C104.942 20.888 104.981 21.1967 104.974 21.5062C104.974 22.2036 104.812 22.7225 104.488 23.0629C104.163 23.4033 103.662 23.5727 102.985 23.5708H102.022V26.5579H100.705ZM101.981 22.5962H102.534C102.842 22.6256 103.15 22.5394 103.397 22.3546C103.493 22.2412 103.565 22.1098 103.608 21.9682C103.651 21.8267 103.665 21.6779 103.649 21.5309C103.684 21.2376 103.602 20.9424 103.422 20.7072C103.171 20.525 102.86 20.4436 102.551 20.4794H101.978L101.981 22.5962Z" fill="#149DFF"/>
<path d="M66.1326 44.3983V32.502H69.1428C69.8003 32.486 70.4581 32.5218 71.1099 32.609C71.4724 32.6697 71.8216 32.7923 72.1419 32.9715C72.5571 33.2148 72.8954 33.5686 73.1185 33.9928C73.3488 34.4587 73.4618 34.9731 73.4478 35.4918C73.4557 35.967 73.3504 36.4374 73.1407 36.8646C72.8942 37.3165 72.5593 37.7151 72.1557 38.0369C72.659 38.2757 73.079 38.6581 73.362 39.1351C73.6428 39.6386 73.7832 40.2072 73.7687 40.7825C73.7706 41.2975 73.6768 41.8085 73.492 42.2898C73.325 42.741 73.066 43.1532 72.7312 43.5005C72.4154 43.8282 72.0171 44.0661 71.5775 44.1897C70.884 44.3489 70.1723 44.4163 69.4609 44.3901L66.1326 44.3983ZM68.9325 37.1529H69.1123C69.5478 37.188 69.9814 37.0651 70.3324 36.8069C70.4714 36.6691 70.5785 36.5029 70.6464 36.3199C70.7142 36.137 70.7411 35.9415 70.7253 35.7472C70.7364 35.5679 70.7071 35.3884 70.6397 35.2217C70.5722 35.055 70.4682 34.9054 70.3352 34.7835C70.0187 34.5438 69.626 34.4249 69.2285 34.4485H69.0487H68.9463L68.9325 37.1529ZM68.9325 42.298H69.176C69.6536 42.3336 70.1269 42.1862 70.4984 41.8862C70.6548 41.7255 70.7751 41.5338 70.8514 41.3237C70.9277 41.1136 70.9583 40.8898 70.9411 40.6672C70.9576 40.4634 70.927 40.2586 70.8517 40.0683C70.7764 39.878 70.6585 39.7072 70.5067 39.5689C70.0985 39.301 69.6112 39.1772 69.1234 39.2175H68.9269L68.9325 42.298Z" fill="white"/>
<path d="M75.1382 38.4488C75.1173 37.4014 75.1691 36.3538 75.2931 35.3134C75.3587 34.7692 75.5337 34.2435 75.8078 33.7677C76.1342 33.2574 76.602 32.8513 77.1551 32.5981C77.786 32.3281 78.4687 32.1979 79.1555 32.2165C79.8415 32.1967 80.5235 32.327 81.1531 32.5981C81.7007 32.854 82.1634 33.2598 82.4866 33.7677C82.7709 34.2431 82.951 34.7726 83.0151 35.3217C83.1417 36.3591 83.1944 37.404 83.1728 38.4488C83.1943 39.4927 83.1416 40.5367 83.0151 41.5732C82.9518 42.1234 82.7717 42.6539 82.4866 43.1299C82.1645 43.6381 81.7015 44.0433 81.1531 44.2968C79.8711 44.8128 78.4371 44.8128 77.1551 44.2968C76.6028 44.0438 76.1351 43.6388 75.8078 43.1299C75.5336 42.6551 75.3586 42.1303 75.2931 41.5869C75.169 40.5457 75.1172 39.4971 75.1382 38.4488ZM77.9049 31.5054L79.4543 29.309H81.7507L79.0254 31.5054H77.9049ZM80.3175 39.5223V37.3753C80.3175 36.0575 80.2336 35.2429 80.0657 34.9318C79.9754 34.7738 79.8408 34.6453 79.6782 34.562C79.5156 34.4786 79.332 34.444 79.15 34.4623C78.9699 34.4462 78.789 34.4832 78.6301 34.5687C78.4711 34.6542 78.3411 34.7843 78.2563 34.9428C78.0903 35.2613 78.0073 36.0739 78.0073 37.3753V39.5223C78.0073 40.8035 78.0903 41.6116 78.2563 41.9466C78.3555 42.095 78.4901 42.2167 78.6482 42.3009C78.8063 42.3851 78.983 42.4292 79.1624 42.4292C79.3418 42.4292 79.5185 42.3851 79.6766 42.3009C79.8347 42.2167 79.9693 42.095 80.0685 41.9466C80.2234 41.6254 80.2981 40.8264 80.2981 39.5223H80.3175Z" fill="white"/>
<path d="M84.8854 44.3984V32.502H87.8043L90.1311 39.8408C90.037 38.6053 89.9688 37.5391 89.9263 36.6423C89.8839 35.7454 89.8618 34.9885 89.8599 34.3717V32.502H92.35V44.3984H89.4283L87.0849 36.8345C87.1901 37.8201 87.2675 38.7728 87.3229 39.698C87.3782 40.6233 87.4031 41.5183 87.4031 42.3886V44.3984H84.8854Z" fill="white"/>
<path d="M101.685 37.8777V44.3983H99.7482L99.6238 43.657C99.3683 43.9576 99.0515 44.201 98.6941 44.3709C98.3307 44.5328 97.9359 44.6134 97.5376 44.607C97.0731 44.6108 96.613 44.5172 96.1875 44.3324C95.775 44.1534 95.4068 43.8873 95.1084 43.5527C94.6983 43.0703 94.4218 42.4903 94.3061 41.8697C94.1512 41.165 94.0737 39.9698 94.0737 38.2841C94.0596 37.3214 94.1142 36.359 94.2369 35.404C94.2948 34.835 94.467 34.2833 94.7432 33.7814C95.0615 33.273 95.5193 32.8654 96.063 32.6063C96.6747 32.3302 97.3417 32.196 98.0135 32.2137C99.1903 32.2137 100.077 32.5313 100.675 33.1664C101.27 33.8034 101.572 34.7506 101.572 36.0135C101.572 36.0602 101.572 36.1316 101.572 36.2249C101.572 36.3183 101.572 36.3979 101.572 36.4528H98.9099V36.3073C98.942 35.8074 98.8656 35.3065 98.6858 34.8384C98.6246 34.7017 98.5231 34.5866 98.3947 34.5082C98.2663 34.4298 98.117 34.3918 97.9665 34.3991C97.7889 34.389 97.6129 34.4374 97.4658 34.5367C97.3188 34.636 97.2088 34.7806 97.1531 34.9483C97.0073 35.3143 96.9336 36.1563 96.9317 37.4741V39.4674C96.9317 40.7907 97.0018 41.6254 97.142 41.9713C97.1968 42.1299 97.3025 42.2663 97.443 42.3595C97.5834 42.4528 97.7508 42.4977 97.9194 42.4875C98.0874 42.4995 98.2553 42.4628 98.4027 42.3819C98.55 42.301 98.6705 42.1793 98.7495 42.0317C98.9523 41.5676 99.0405 41.0621 99.0068 40.5574C99.0068 40.4009 99.0068 40.2828 99.0068 40.2004C99.0068 40.1181 99.0068 40.0384 99.0068 39.9616H97.9001V37.8832L101.685 37.8777Z" fill="white"/>
<path d="M111.111 32.502C111.959 32.4614 112.808 32.5541 113.626 32.7766C114.155 32.9579 114.609 33.3072 114.918 33.7705C115.197 34.1991 115.379 34.6823 115.452 35.1871C115.58 36.2649 115.631 37.3502 115.604 38.4351C115.631 39.519 115.58 40.6035 115.452 41.6803C115.377 42.1865 115.195 42.6712 114.918 43.1025C114.61 43.5657 114.155 43.9143 113.626 44.0936C112.809 44.3233 111.96 44.4216 111.111 44.3846H107.874V39.1681H106.806V37.1612H107.874V32.4938L111.111 32.502ZM110.613 39.1901V42.2267C110.768 42.2431 110.89 42.2541 110.959 42.2569H111.15C111.449 42.2662 111.747 42.2206 112.03 42.1223C112.249 42.042 112.441 41.901 112.583 41.716C112.721 41.4803 112.798 41.2143 112.807 40.9418C112.85 40.5629 112.871 39.7392 112.871 38.4708V37.5977C112.881 37.0187 112.862 36.4396 112.813 35.8625C112.8 35.6305 112.726 35.4059 112.597 35.2119C112.459 35.0266 112.265 34.8892 112.044 34.8192C111.751 34.7291 111.445 34.6865 111.139 34.6929C111.039 34.6929 110.882 34.6929 110.663 34.7177C110.645 34.7147 110.626 34.7147 110.608 34.7177V37.1886H111.886V39.1956L110.613 39.1901Z" fill="white"/>
<path d="M116.468 44.3983L119.082 32.502H122.416L125 44.3983H122.197L121.846 42.1196H119.633L119.281 44.3983H116.468ZM119.48 31.4944L121.03 29.298H123.326L120.601 31.4944H119.48ZM119.931 39.9781H121.544L120.742 34.7863L119.931 39.9781Z" fill="white"/>
<g filter="url(#filter0_i_1219_10814)">
<circle cx="31.017" cy="30.017" r="30.017" fill="url(#paint0_linear_1219_10814)"/>
<circle cx="31.017" cy="30.017" r="30.017" fill="url(#paint1_radial_1219_10814)" fill-opacity="0.6"/>
</g>
<path d="M8.98926 39.9255V44.9685H34.5592C31.2418 43.97 28.3776 41.9366 26.3477 39.2467H19.0299V39.0204L23.8332 34.3225C23.3836 32.8518 23.1418 31.2913 23.1418 29.6747C23.1418 28.636 23.2416 27.6206 23.4322 26.6372C22.7917 27.3517 22.0207 28.1444 21.119 29.0153L8.98926 39.9255Z" fill="white"/>
<path d="M25.713 21.0069C27.0457 18.9614 28.8365 17.2376 30.9412 15.9785C29.9665 14.5761 28.625 13.4746 26.9167 12.6741C25.1569 11.8336 23.0893 11.4133 20.7141 11.4133C18.4037 11.4133 16.3632 11.8497 14.5926 12.7226C12.822 13.5954 11.4454 14.8292 10.463 16.424C9.48049 18.0188 8.98926 19.8991 8.98926 22.065H15.6452C15.6452 21.009 15.8504 20.0985 16.2606 19.3334C16.6709 18.5683 17.2539 17.9811 18.0096 17.5716C18.7654 17.1621 19.6507 16.9574 20.6656 16.9574C21.6372 16.9574 22.5063 17.1513 23.2729 17.5393C24.0394 17.9164 24.644 18.4606 25.0867 19.1718C25.4239 19.7053 25.6326 20.317 25.713 21.0069Z" fill="white"/>
<path d="M10.7015 44.9685H34.5593C31.242 43.97 28.3778 41.9366 26.3479 39.2466H10.7014L10.7015 44.9685Z" fill="url(#paint2_radial_1219_10814)"/>
<path d="M25.713 21.0069C27.0457 18.9614 28.8365 17.2376 30.9412 15.9785C29.9665 14.5761 28.625 13.4746 26.9167 12.6741C25.1569 11.8336 23.0893 11.4133 20.7141 11.4133C18.4037 11.4133 16.3632 11.8497 14.5926 12.7226C12.822 13.5954 11.4454 14.8292 10.463 16.424C9.48049 18.0188 8.98926 19.8991 8.98926 22.065H15.6452C15.6452 21.009 15.8504 20.0985 16.2606 19.3334C16.6709 18.5683 17.2539 17.9811 18.0096 17.5716C18.7654 17.1621 19.6507 16.9574 20.6656 16.9574C21.6372 16.9574 22.5063 17.1513 23.2729 17.5393C24.0394 17.9164 24.644 18.4606 25.0867 19.1718C25.4239 19.7053 25.6326 20.317 25.713 21.0069Z" fill="url(#paint3_linear_1219_10814)"/>
<path d="M29.4192 18.2612C25.7669 21.3428 25.7669 23.7397 16.2939 33.3269C10.2447 41.3162 21.8089 36.5333 23.8267 34.3541C26.68 31.2724 28.5061 28.8757 32.1585 24.5387C34.4658 21.7988 32.8432 15.3722 29.4192 18.2612Z" fill="white"/>
<path fill-rule="evenodd" clip-rule="evenodd" d="M54.4144 29.7888C54.4144 38.1723 47.6182 44.9685 39.2347 44.9685C32.5369 44.9685 26.8522 40.6307 24.8369 34.6111C26.2337 33.0615 27.8066 31.1843 29.2822 29.4101C29.4906 29.1596 29.697 28.9112 29.9006 28.6661L29.9027 28.6636L29.9028 28.6635C30.1715 28.3401 30.4354 28.0224 30.693 27.713C30.5318 28.3786 30.4464 29.0737 30.4464 29.7888C30.4464 34.6424 34.381 38.5771 39.2347 38.5771C44.0883 38.5771 48.0229 34.6424 48.0229 29.7888C48.0229 24.9352 44.0883 21.0005 39.2347 21.0005C36.3727 21.0005 33.8303 22.3686 32.2256 24.4864C31.3766 25.4605 30.3246 26.7269 29.201 28.0793L29.201 28.0794C28.9962 28.3259 28.789 28.5753 28.5802 28.8263C27.2338 30.4452 25.818 32.1356 24.5327 33.5819C24.2208 32.3695 24.0549 31.0985 24.0549 29.7888C24.0549 21.4053 30.8511 14.6091 39.2347 14.6091C47.6182 14.6091 54.4144 21.4053 54.4144 29.7888Z" fill="white"/>
<path d="M54.4145 29.7889C54.4145 38.1724 47.6183 44.9686 39.2347 44.9686C32.537 44.9686 26.8524 40.6308 24.837 34.6113C26.2338 33.0617 27.8067 31.1845 29.2823 29.4103C29.4914 29.1589 29.6985 28.9096 29.9028 28.6637C30.1716 28.3403 30.4355 28.0226 30.693 27.7133C30.5319 28.3788 30.4465 29.0739 30.4465 29.7889C30.4465 34.6425 34.3811 38.5772 39.2347 38.5772C44.0883 38.5772 48.023 34.6425 48.023 29.7889H54.4145Z" fill="url(#paint4_linear_1219_10814)"/>
<path fill-rule="evenodd" clip-rule="evenodd" d="M54.4144 50.2474C52.7346 52.1885 50.8174 53.9183 48.7078 55.3918L48.7078 60.034H54.4144L54.4144 50.2474Z" fill="#0075FF"/>
<path d="M37.7509 60.2624C42.7727 59.2581 47.3 56.5775 48.7076 55.3981V60.0342C45.8163 60.1102 39.2118 60.2624 37.7509 60.2624Z" fill="#0077FF"/>
<path d="M33.2939 31.1093V26.129H34.3469V30.2412H36.482V31.1093H33.2939ZM37.1599 31.1093V27.374H38.1959V31.1093H37.1599ZM37.6803 26.8925C37.5263 26.8925 37.3942 26.8415 37.2839 26.7393C37.1753 26.6356 37.121 26.5116 37.121 26.3673C37.121 26.2246 37.1753 26.1022 37.2839 26.0001C37.3942 25.8963 37.5263 25.8444 37.6803 25.8444C37.8343 25.8444 37.9657 25.8963 38.0743 26.0001C38.1845 26.1022 38.2396 26.2246 38.2396 26.3673C38.2396 26.5116 38.1845 26.6356 38.0743 26.7393C37.9657 26.8415 37.8343 26.8925 37.6803 26.8925ZM42.5081 27.374L41.2022 31.1093H40.0349L38.729 27.374H39.8234L40.5991 30.0466H40.638L41.4113 27.374H42.5081ZM44.6201 31.1823C44.2359 31.1823 43.9052 31.1045 43.6279 30.9488C43.3523 30.7916 43.14 30.5695 42.9908 30.2825C42.8416 29.9939 42.7671 29.6527 42.7671 29.2587C42.7671 28.8745 42.8416 28.5373 42.9908 28.2471C43.14 27.9569 43.3499 27.7307 43.6206 27.5686C43.893 27.4065 44.2124 27.3254 44.5788 27.3254C44.8252 27.3254 45.0546 27.3651 45.267 27.4446C45.481 27.5224 45.6674 27.6399 45.8263 27.7972C45.9868 27.9544 46.1116 28.1522 46.2008 28.3905C46.29 28.6272 46.3345 28.9045 46.3345 29.2222V29.5067H43.1805V28.8647H45.3594C45.3594 28.7156 45.327 28.5835 45.2621 28.4684C45.1973 28.3533 45.1073 28.2633 44.9922 28.1984C44.8787 28.132 44.7466 28.0987 44.5958 28.0987C44.4385 28.0987 44.2991 28.1352 44.1775 28.2082C44.0576 28.2795 43.9635 28.376 43.8954 28.4975C43.8273 28.6175 43.7925 28.7513 43.7909 28.8988V29.5092C43.7909 29.694 43.8249 29.8537 43.893 29.9882C43.9627 30.1228 44.0608 30.2266 44.1873 30.2995C44.3137 30.3725 44.4637 30.409 44.6371 30.409C44.7522 30.409 44.8576 30.3927 44.9533 30.3603C45.0489 30.3279 45.1308 30.2793 45.1989 30.2144C45.267 30.1496 45.3189 30.0701 45.3545 29.9761L46.3127 30.0393C46.264 30.2695 46.1643 30.4706 46.0135 30.6424C45.8644 30.8126 45.6715 30.9456 45.4348 31.0412C45.1997 31.1353 44.9281 31.1823 44.6201 31.1823Z" fill="#32FFFF"/>
<path fill-rule="evenodd" clip-rule="evenodd" d="M48.7078 54.2696L48.7078 29.2181L54.4144 29.2181L54.4144 48.8227C52.7602 50.8782 50.8406 52.7112 48.7078 54.2696Z" fill="white"/>
<defs>
<filter id="filter0_i_1219_10814" x="1" y="0" width="60.0341" height="60.0341" filterUnits="userSpaceOnUse" color-interpolation-filters="sRGB">
<feFlood flood-opacity="0" result="BackgroundImageFix"/>
<feBlend mode="normal" in="SourceGraphic" in2="BackgroundImageFix" result="shape"/>
<feColorMatrix in="SourceAlpha" type="matrix" values="0 0 0 0 0 0 0 0 0 0 0 0 0 0 0 0 0 0 127 0" result="hardAlpha"/>
<feOffset dx="1.14133" dy="1.3696"/>
<feComposite in2="hardAlpha" operator="arithmetic" k2="-1" k3="1"/>
<feColorMatrix type="matrix" values="0 0 0 0 0.320833 0 0 0 0 0.837 0 0 0 0 1 0 0 0 1 0"/>
<feBlend mode="normal" in2="shape" result="effect1_innerShadow_1219_10814"/>
</filter>
<linearGradient id="paint0_linear_1219_10814" x1="58.1808" y1="72.4746" x2="4.96972" y2="-61.283" gradientUnits="userSpaceOnUse">
<stop stop-color="#0066FF"/>
<stop offset="0.934353" stop-color="#00C2FF"/>
</linearGradient>
<radialGradient id="paint1_radial_1219_10814" cx="0" cy="0" r="1" gradientUnits="userSpaceOnUse" gradientTransform="translate(-3.46553 -13.0464) rotate(47.4582) scale(49.0809 44.5171)">
<stop stop-color="#B3F1FF"/>
<stop offset="1" stop-color="white" stop-opacity="0"/>
</radialGradient>
<radialGradient id="paint2_radial_1219_10814" cx="0" cy="0" r="1" gradientUnits="userSpaceOnUse" gradientTransform="translate(32.7291 38.2346) rotate(118.025) scale(16.0324 34.5623)">
<stop offset="0.235681" stop-color="#1877F2" stop-opacity="0.5"/>
<stop offset="0.549253" stop-color="white" stop-opacity="0"/>
</radialGradient>
<linearGradient id="paint3_linear_1219_10814" x1="32.1583" y1="20.7723" x2="19.9461" y2="5.59253" gradientUnits="userSpaceOnUse">
<stop offset="0.167414" stop-color="#1877F2" stop-opacity="0.5"/>
<stop offset="0.460722" stop-color="white" stop-opacity="0"/>
</linearGradient>
<linearGradient id="paint4_linear_1219_10814" x1="23.5985" y1="26.3648" x2="40.7049" y2="44.3364" gradientUnits="userSpaceOnUse">
<stop offset="0.208353" stop-color="#1877F2" stop-opacity="0.5"/>
<stop offset="0.456056" stop-color="white" stop-opacity="0"/>
</linearGradient>
</defs>
</svg>
